<svg xmlns="http://www.w3.org/2000/svg" viewBox="0 0 48 48" fill="none">
  <defs>
    <linearGradient id="b" x1="0" y1="0" x2="1" y2="1">
      <stop offset="0%" stop-color="#ffd479"/>
      <stop offset="55%" stop-color="#f5b942"/>
      <stop offset="100%" stop-color="#38e1ff"/>
    </linearGradient>
    <radialGradient id="c" cx="50%" cy="50%" r="50%">
      <stop offset="0%" stop-color="#fff"/>
      <stop offset="60%" stop-color="#ffd479"/>
      <stop offset="100%" stop-color="rgba(245,185,66,0)"/>
    </radialGradient>
  </defs>
  <rect width="48" height="48" rx="10" fill="#04060b"/>
  <g>
    <path d="M24 24 L34 20.5 A11 11 0 0 1 27.85 35 Z" fill="rgba(245,185,66,0.08)" stroke="url(#b)" stroke-width="1.4"/>
    <path d="M24 24 L34 20.5 A11 11 0 0 1 27.85 35 Z" fill="rgba(245,185,66,0.08)" stroke="url(#b)" stroke-width="1.4" transform="rotate(60 24 24)"/>
    <path d="M24 24 L34 20.5 A11 11 0 0 1 27.85 35 Z" fill="rgba(245,185,66,0.08)" stroke="url(#b)" stroke-width="1.4" transform="rotate(120 24 24)"/>
    <path d="M24 24 L34 20.5 A11 11 0 0 1 27.85 35 Z" fill="rgba(245,185,66,0.08)" stroke="url(#b)" stroke-width="1.4" transform="rotate(180 24 24)"/>
    <path d="M24 24 L34 20.5 A11 11 0 0 1 27.85 35 Z" fill="rgba(245,185,66,0.08)" stroke="url(#b)" stroke-width="1.4" transform="rotate(240 24 24)"/>
    <path d="M24 24 L34 20.5 A11 11 0 0 1 27.85 35 Z" fill="rgba(245,185,66,0.08)" stroke="url(#b)" stroke-width="1.4" transform="rotate(300 24 24)"/>
  </g>
  <circle cx="24" cy="24" r="19" stroke="url(#b)" stroke-width="1.4" opacity="0.7"/>
  <circle cx="24" cy="24" r="5" fill="url(#c)"/>
</svg>
